<svg xmlns="http://www.w3.org/2000/svg" viewBox="0 0 165 42" width="165" height="42">
  <defs>
    <linearGradient id="bgMail" x1="0%" y1="0%" x2="100%" y2="100%">
      <stop offset="0%" stop-color="#238636"/>
      <stop offset="100%" stop-color="#1a6328"/>
    </linearGradient>
  </defs>

  <style>
    .pill {
      fill: url(#bgMail);
      stroke: #39d353;
      stroke-width: 2;
      rx: 21;
      ry: 21;
      filter: drop-shadow(0 4px 10px rgba(35, 134, 54, 0.35));
    }
    .label {
      font-family: 'Space Grotesk', -apple-system, BlinkMacSystemFont, "Segoe UI", Roboto, sans-serif;
      font-size: 13px;
      font-weight: 700;
      letter-spacing: 1.5px;
      fill: #ffffff;
      text-shadow: 1px 1px 2px rgba(0, 0, 0, 0.8);
      dominant-baseline: central;
    }
  </style>

  <!-- Background Capsule -->
  <rect x="1" y="1" width="163" height="40" class="pill"/>

  <!-- Text on Left -->
  <text x="44" y="21.5" class="label">EMAIL</text>

  <!-- Icon on Right (16x16 viewBox 0 0 24 24) -->
  <g transform="translate(108, 13)">
    <svg width="16" height="16" viewBox="0 0 24 24" fill="#ffffff">
      <path d="M24 5.457v13.909c0 .904-.732 1.636-1.636 1.636h-3.819V11.73L12 16.64l-6.545-4.91v9.273H1.636A1.636 1.636 0 0 1 0 19.366V5.457c0-2.023 2.309-3.178 3.927-1.964L5.455 4.64 12 9.548l6.545-4.91 1.528-1.145C21.69 2.28 24 3.434 24 5.457z"/>
    </svg>
  </g>
</svg>
